<svg id="Layer_1" data-name="Layer 1" xmlns="http://www.w3.org/2000/svg" viewBox="0 0 38.4 89.44"><defs><style>.cls-1{fill:#d7d6de;}</style></defs><title>noun_Cell Phone_371247</title><path class="cls-1" d="M68.65,16.15a25.73,25.73,0,0,0-.46-2.89c-.6-2.82-1-4.43-2.1-5.65-1.61-1.71-6.89-2-7.68-2.07-2.66-.2-5.21-.28-7.62-.25H50q-3.63,0-7.62.25c-.8.06-6.08.36-7.69,2.07-1.15,1.22-1.49,2.83-2.1,5.65-.25,1.2-.38,2.2-.46,2.89C31.38,27,31,38.75,31.28,51.38c.27,13.33,1.2,25.69,2.5,37a6.68,6.68,0,0,0,1,2.91A7,7,0,0,0,38.37,94c2.06.26,4.24.48,6.53.64,1.76.12,9.22.12,11,0,2.29-.16,4.47-.38,6.53-.64A7,7,0,0,0,66,91.25a6.68,6.68,0,0,0,1-2.91c1.3-11.27,2.23-23.63,2.51-37C69.77,38.75,69.4,27,68.65,16.15Zm-32.87,49a3.3,3.3,0,0,1,0-.58,1.53,1.53,0,0,1,.57-.8,1.76,1.76,0,0,1,.67-.28,4.79,4.79,0,0,1,1-.05,4.61,4.61,0,0,1,1.73.49,6.94,6.94,0,0,1,3,2.4,1.12,1.12,0,0,1,0,.85,1.19,1.19,0,0,1-1,.74,7.87,7.87,0,0,1-3.56-.14,4.93,4.93,0,0,1-1.75-1,4.72,4.72,0,0,1-.62-.7A3.12,3.12,0,0,1,35.78,65.19Zm.54,6.29a2.51,2.51,0,0,1,0-.57,1.58,1.58,0,0,1,1.25-1.09,4.82,4.82,0,0,1,1,0,4.5,4.5,0,0,1,1.73.48,7.07,7.07,0,0,1,2.3,1.57,6.3,6.3,0,0,1,.7.83,1.24,1.24,0,0,1,0,.85,1.21,1.21,0,0,1-1,.74,8.12,8.12,0,0,1-1.52.14,7.74,7.74,0,0,1-2-.28,4.93,4.93,0,0,1-1.75-1,5.41,5.41,0,0,1-.63-.69A3.3,3.3,0,0,1,36.32,71.48Zm.36,6.31a2.51,2.51,0,0,1,0-.57A1.58,1.58,0,0,1,38,76.13a4.79,4.79,0,0,1,1,0,4.5,4.5,0,0,1,1.73.48A7.23,7.23,0,0,1,43,78.14a6.05,6.05,0,0,1,.69.83,1.17,1.17,0,0,1,0,.85,1.21,1.21,0,0,1-1,.74,8.12,8.12,0,0,1-1.52.14,7.74,7.74,0,0,1-2-.28,4.78,4.78,0,0,1-1.75-1,5.41,5.41,0,0,1-.63-.69A3.3,3.3,0,0,1,36.68,77.79Zm7.55,8.33a1.2,1.2,0,0,1-1,.73,7.36,7.36,0,0,1-1.52.14,7.79,7.79,0,0,1-2-.27,4.83,4.83,0,0,1-1.75-1,4.23,4.23,0,0,1-.62-.69,3.24,3.24,0,0,1-.14-.92,4.66,4.66,0,0,1,0-.58,1.58,1.58,0,0,1,1.25-1.09,4.82,4.82,0,0,1,1,0,4.5,4.5,0,0,1,1.73.48,7.23,7.23,0,0,1,2.3,1.57,7,7,0,0,1,.7.83A1.27,1.27,0,0,1,44.23,86.12Zm9.79.53a4.47,4.47,0,0,1-1.89,1.44,4.56,4.56,0,0,1-1.79.31,4.36,4.36,0,0,1-2.47-.67,4.19,4.19,0,0,1-1.2-1.2,1.39,1.39,0,0,1,0-1.12,1.24,1.24,0,0,1,.47-.51,6.72,6.72,0,0,1,1.71-.63,7.17,7.17,0,0,1,1.61-.15A6.19,6.19,0,0,1,52,84.3a5.85,5.85,0,0,1,1.71.69,1.12,1.12,0,0,1,.49.71A1.15,1.15,0,0,1,54,86.65Zm0-6.44a4.47,4.47,0,0,1-1.89,1.44,4.56,4.56,0,0,1-1.79.31,4.36,4.36,0,0,1-2.47-.67,4.19,4.19,0,0,1-1.2-1.2,1.39,1.39,0,0,1,0-1.12,1.24,1.24,0,0,1,.47-.51,6.39,6.39,0,0,1,1.71-.62,6.7,6.7,0,0,1,1.61-.16,6.19,6.19,0,0,1,1.58.18,6.47,6.47,0,0,1,1.71.69,1.12,1.12,0,0,1,.49.71A1.15,1.15,0,0,1,54,80.21ZM54,74a4.49,4.49,0,0,1-3.68,1.75A4.36,4.36,0,0,1,47.87,75a4.2,4.2,0,0,1-1.2-1.21,1.36,1.36,0,0,1,0-1.11,1.18,1.18,0,0,1,.47-.51,6.72,6.72,0,0,1,1.71-.63,7.17,7.17,0,0,1,1.61-.15,6.59,6.59,0,0,1,1.58.17,6.12,6.12,0,0,1,1.71.7,1.09,1.09,0,0,1,.49.71A1.17,1.17,0,0,1,54,74Zm0-6.27a4.47,4.47,0,0,1-1.89,1.44,4.38,4.38,0,0,1-1.79.31,4.14,4.14,0,0,1-3.67-1.87,1.36,1.36,0,0,1,0-1.11,1.28,1.28,0,0,1,.47-.52,7.16,7.16,0,0,1,1.71-.62,7.25,7.25,0,0,1,1.61-.16,6.68,6.68,0,0,1,1.58.18,6.47,6.47,0,0,1,1.71.69,1.15,1.15,0,0,1,.49.72A1.13,1.13,0,0,1,54,67.68ZM63.5,85a4.23,4.23,0,0,1-.62.69,4.86,4.86,0,0,1-1.76,1,7.79,7.79,0,0,1-2,.27,7.49,7.49,0,0,1-1.52-.13,1.21,1.21,0,0,1-1-.74,1.16,1.16,0,0,1,0-.86,9.16,9.16,0,0,1,.69-.83,7,7,0,0,1,2.31-1.56,4.61,4.61,0,0,1,1.73-.49,4.23,4.23,0,0,1,1,.05,1.49,1.49,0,0,1,.66.27,1.62,1.62,0,0,1,.58.81,3.3,3.3,0,0,1,0,.58A3.18,3.18,0,0,1,63.5,85ZM64,78.72a4.23,4.23,0,0,1-.62.69,4.83,4.83,0,0,1-1.75,1,7.85,7.85,0,0,1-2,.27A7.53,7.53,0,0,1,58,80.56a1.18,1.18,0,0,1-1-.73,1.21,1.21,0,0,1,0-.86,8,8,0,0,1,.69-.83,7.37,7.37,0,0,1,2.31-1.57,4.45,4.45,0,0,1,1.73-.48,4.23,4.23,0,0,1,1,0,1.47,1.47,0,0,1,.67.27,1.54,1.54,0,0,1,.57.81,3.2,3.2,0,0,1-.09,1.5Zm.36-6.31a5.26,5.26,0,0,1-.62.69,4.78,4.78,0,0,1-1.75,1,7.81,7.81,0,0,1-2,.28,8.32,8.32,0,0,1-1.53-.14,1.14,1.14,0,0,1-1-1.59,8,8,0,0,1,.69-.83,7.37,7.37,0,0,1,2.31-1.57,4.45,4.45,0,0,1,1.73-.48,4.85,4.85,0,0,1,1,0,1.64,1.64,0,0,1,.67.28,1.54,1.54,0,0,1,.57.81,3.2,3.2,0,0,1-.09,1.5Zm.54-6.3a4.84,4.84,0,0,1-.63.7,4.93,4.93,0,0,1-1.75,1,7.83,7.83,0,0,1-3.55.14,1.21,1.21,0,0,1-1-.74,1.16,1.16,0,0,1,0-.85,5.51,5.51,0,0,1,.69-.83A7.07,7.07,0,0,1,60.94,64a4.5,4.5,0,0,1,1.73-.48,4.79,4.79,0,0,1,1,0,1.64,1.64,0,0,1,.67.28,1.6,1.6,0,0,1,.58.81,2.51,2.51,0,0,1,0,.57A3.16,3.16,0,0,1,64.87,66.11ZM67.48,46.8a33.48,33.48,0,0,1-3.23,8.52,16.06,16.06,0,0,1-2,2.86,16.68,16.68,0,0,1-11.72,5.7A17.13,17.13,0,0,1,41,60.5a17.33,17.33,0,0,1-2.48-2.32,15.54,15.54,0,0,1-2-2.86,33.1,33.1,0,0,1-3.23-8.52,45.93,45.93,0,0,1-.88-10.88c0-2.62.11-4.8.23-6.35a102.44,102.44,0,0,1,1.11-11.39c.49-3.18,1.09-6.13,1.76-8.85A3.42,3.42,0,0,1,36.27,8a3.8,3.8,0,0,1,2.5-1.21c1.25-.19,2.54-.37,3.89-.51a73.17,73.17,0,0,1,15.47,0c1.35.14,2.65.32,3.89.51A3.78,3.78,0,0,1,64.52,8a3.42,3.42,0,0,1,.74,1.38c.67,2.72,1.27,5.67,1.76,8.85a102.6,102.6,0,0,1,1.12,11.39c.11,1.55.23,3.73.23,6.35A46.47,46.47,0,0,1,67.48,46.8Z" transform="translate(-31.19 -5.28)"/><path class="cls-1" d="M65,17.64c-.37-2.63-.84-5.11-1.36-7.4a3.37,3.37,0,0,0-1.17-1.76A4.62,4.62,0,0,0,61,7.79a7.6,7.6,0,0,0-.79-.2c-.76-.14-1.55-.26-2.36-.36a50.14,50.14,0,0,0-7.43-.4,51.33,51.33,0,0,0-7.42.4q-1.23.15-2.37.36a7.6,7.6,0,0,0-.79.2,4.62,4.62,0,0,0-1.51.69,3.29,3.29,0,0,0-1.16,1.76c-.53,2.29-1,4.77-1.37,7.4a91.14,91.14,0,0,0-.91,11.92A72.59,72.59,0,0,0,35,37.65,69.27,69.27,0,0,0,36.1,45.7a11.26,11.26,0,0,0,1.71,4.14A11.42,11.42,0,0,0,41,53a28.54,28.54,0,0,1,4.59-1,30.27,30.27,0,0,1,3.49-.26H51.7a28.18,28.18,0,0,1,3.49.26,28.54,28.54,0,0,1,4.59,1A11.56,11.56,0,0,0,63,49.84a11.39,11.39,0,0,0,1.7-4.14,69.27,69.27,0,0,0,1.09-8.05,72.59,72.59,0,0,0,.15-8.09A91.14,91.14,0,0,0,65,17.64ZM44.48,22.73a.38.38,0,0,1,.38-.38H55.92a.38.38,0,0,1,.39.38v1.78a.38.38,0,0,1-.39.38H44.86a.38.38,0,0,1-.38-.38V22.73ZM64.13,40.86c-.11,2-.29,4-.51,5.78a3.81,3.81,0,0,1-.12.67,5.38,5.38,0,0,1-.25.67l-.84,0q-6.07.3-12,.32h0q-5.94,0-12-.32l-.84,0a3.38,3.38,0,0,1-.25-.67,3.92,3.92,0,0,1-.13-.67c-.22-1.82-.4-3.75-.5-5.78a85.75,85.75,0,0,1,0-9.92A1.71,1.71,0,0,1,37,29.51a1.69,1.69,0,0,1,1.34-.58l12-.25h.09l12,.25a1.72,1.72,0,0,1,1.34.59,1.69,1.69,0,0,1,.33,1.42A85.62,85.62,0,0,1,64.13,40.86Z" transform="translate(-31.19 -5.28)"/></svg>