<svg id="Layer_1" data-name="Layer 1" xmlns="http://www.w3.org/2000/svg" viewBox="0 0 94.75 57.57"><defs><style>.cls-1{fill:#282b3a;}</style></defs><title>noun_Bicycle_25982</title><path class="cls-1" d="M97.26,59.6A18.78,18.78,0,0,0,78.48,40.82a18.46,18.46,0,0,0-5.44.81L68.91,31a4.08,4.08,0,0,0-4.44-3.21H32.58c.26-1,.51-1.93.9-3.38.26-1,1.91-.83,2.73-.83h5.35V20.84H36.21c-2.25,0-4.55-.47-5.33,2.57-.39,1.51-.92,3.4-1.15,4.23a1.42,1.42,0,0,0-.07.22L26.24,40.43l-.28,1a18.45,18.45,0,0,0-4.67-.59,18.76,18.76,0,1,0,7.25,1.45l1.35-4.6L45,54.52a7.53,7.53,0,0,0-1,3.71c0,3.57,2.71,6.54,7.28,6.54a10.08,10.08,0,0,0,1.85-.13l1.24,3.09c-1.24.49-1.36.62-1.36.86s.12.37.86,1h3.46a2.52,2.52,0,0,0,.62-1.11c0-.25,0-.49-1.61-.74L55,64a7.15,7.15,0,0,0,2.84-3.21h1.94A18.78,18.78,0,0,0,97.26,59.6Zm-59.91,0A16.06,16.06,0,1,1,21.29,43.55,15.74,15.74,0,0,1,25.2,44L21.86,55.57a3.45,3.45,0,0,0-.57,0,4.09,4.09,0,1,0,3,1.29l3.51-11.9A16.06,16.06,0,0,1,37.35,59.6ZM30.82,34.7l1-4.1,32.85-.27L53.48,50.94a9.56,9.56,0,0,0-2.09-.24,13,13,0,0,0-1.73.12l-1.12-3c1.36-.25,1.61-.5,1.61-.75a2.82,2.82,0,0,0-.49-1.1H46.08c-.87.49-.87.49-.87.74s.37.49,1.73,1.11l1.24,3.45a6.18,6.18,0,0,0-1.49.86ZM51.23,62.09a4.26,4.26,0,1,1,0-8.52,4.26,4.26,0,1,1,0,8.52Zm4.85-9.42L66.57,32.8l3.85,9.83A18.83,18.83,0,0,0,59.76,58.1H58.42C58.3,55.51,57.8,54.27,56.08,52.67ZM74.69,58.1H62.49a16.07,16.07,0,0,1,8.93-12.92l4.43,11.31A4.06,4.06,0,0,0,74.69,58.1ZM62.47,60.82H74.58a4.08,4.08,0,1,0,3.9-5.3H78.4L74,44.18A16.06,16.06,0,1,1,62.47,60.82Z" transform="translate(-2.51 -20.81)"/><path class="cls-1" d="M72.24,23.23c0-1.35-.74-1.85-1.6-1.85H62.86c-4.32,0-4.44.5-4.81,3.46H70.89C72,24.84,72.24,24.59,72.24,23.23Z" transform="translate(-2.51 -20.81)"/></svg>