<svg id="Layer_1" data-name="Layer 1" xmlns="http://www.w3.org/2000/svg" viewBox="0 0 79.19 39.84"><defs><style>.cls-1{fill:#d7d6de;}</style></defs><title>noun_Arrow_2342580</title><path class="cls-1" d="M10.48,36.22a1,1,0,0,1,.33-1.29,1,1,0,0,1,1.38.27c.31.44,30.81,44.56,74.64,29.89a1,1,0,0,1,.63,1.9c-23.69,7.93-43.36-.86-55.69-9.62a93.93,93.93,0,0,1-21.23-21Z" transform="translate(-10.37 -34.76)"/><path class="cls-1" d="M78,74.06a1,1,0,0,1,.3-1.27l8.6-6.29-9.26-7.1a1,1,0,0,1,1.22-1.59l10.32,7.92a1,1,0,0,1,.39.8,1,1,0,0,1-.41.8L79.46,74.4a1,1,0,0,1-1.4-.21Z" transform="translate(-10.37 -34.76)"/></svg>